<svg width="32" height="33" viewBox="0 0 32 33" fill="none" xmlns="http://www.w3.org/2000/svg">
<path d="M16.6329 25.5284H5.86066C5.97827 23.2238 6.9753 21.052 8.64635 19.4605C10.3174 17.869 12.5352 16.9791 14.8428 16.974C16.5666 16.9724 18.2538 17.471 19.6999 18.4092C19.8062 18.4781 19.9355 18.502 20.0594 18.4755C20.1832 18.4491 20.2916 18.3745 20.3605 18.2682C20.4294 18.1619 20.4532 18.0326 20.4268 17.9087C20.4003 17.7848 20.3258 17.6765 20.2195 17.6076C18.6155 16.5688 16.7443 16.0184 14.8333 16.0235C12.1953 16.0352 9.66946 17.0923 7.80941 18.963C5.94936 20.8338 4.90678 23.3656 4.91016 26.0037C4.91016 26.1297 4.96023 26.2506 5.04936 26.3397C5.13849 26.4289 5.25937 26.4789 5.38541 26.4789H16.6329C16.759 26.4789 16.8799 26.4289 16.969 26.3397C17.0581 26.2506 17.1082 26.1297 17.1082 26.0037C17.1082 25.8776 17.0581 25.7567 16.969 25.6676C16.8799 25.5785 16.759 25.5284 16.6329 25.5284Z" fill="#3D309E"/>
<path d="M14.8907 14.9142C16.05 14.9142 17.1832 14.5704 18.1471 13.9264C19.111 13.2823 19.8623 12.3669 20.3059 11.2958C20.7495 10.2248 20.8656 9.04629 20.6394 7.9093C20.4133 6.7723 19.855 5.7279 19.0353 4.90817C18.2156 4.08844 17.1712 3.5302 16.0342 3.30403C14.8972 3.07787 13.7187 3.19395 12.6476 3.63758C11.5766 4.08121 10.6612 4.83248 10.0171 5.79638C9.37306 6.76028 9.0293 7.89352 9.0293 9.05279C9.03181 10.6066 9.65015 12.096 10.7488 13.1946C11.8475 14.2933 13.3369 14.9117 14.8907 14.9142ZM14.8907 4.1419C15.862 4.1419 16.8114 4.42992 17.619 4.96954C18.4266 5.50915 19.0561 6.27613 19.4277 7.17348C19.7994 8.07083 19.8967 9.05824 19.7072 10.0109C19.5177 10.9635 19.05 11.8385 18.3632 12.5253C17.6764 13.2121 16.8014 13.6798 15.8487 13.8693C14.8961 14.0588 13.9087 13.9616 13.0114 13.5899C12.114 13.2182 11.347 12.5887 10.8074 11.7811C10.2678 10.9735 9.97979 10.0241 9.97979 9.05279C9.98147 7.75086 10.4994 6.50273 11.42 5.58212C12.3406 4.66152 13.5887 4.14358 14.8907 4.1419Z" fill="#3D309E"/>
<path d="M28.5339 21.2072L26.7629 19.4361C26.6728 19.3522 26.5536 19.3065 26.4305 19.3087C26.3074 19.3108 26.1899 19.3607 26.1028 19.4478C26.0157 19.5349 25.9659 19.6523 25.9637 19.7755C25.9615 19.8986 26.0072 20.0177 26.0912 20.1078L26.7565 20.7763H19.4694C19.3433 20.7763 19.2225 20.8264 19.1333 20.9155C19.0442 21.0047 18.9941 21.1255 18.9941 21.2516C18.9941 21.3776 19.0442 21.4985 19.1333 21.5876C19.2225 21.6768 19.3433 21.7268 19.4694 21.7268H27.3427L26.0753 22.9942C26.0286 23.0377 25.9912 23.0901 25.9652 23.1484C25.9392 23.2067 25.9253 23.2697 25.9241 23.3335C25.923 23.3973 25.9348 23.4607 25.9587 23.5198C25.9826 23.579 26.0181 23.6328 26.0633 23.6779C26.1084 23.723 26.1622 23.7586 26.2213 23.7825C26.2805 23.8064 26.3439 23.8182 26.4077 23.817C26.4715 23.8159 26.5344 23.8019 26.5927 23.776C26.651 23.75 26.7035 23.7125 26.747 23.6658L28.5181 21.8948C28.6071 21.8056 28.6571 21.6849 28.6571 21.5589C28.6571 21.433 28.6071 21.3122 28.5181 21.2231L28.5339 21.2072Z" fill="#3D309E"/>
<path d="M27.7233 25.2128H19.6441L20.9494 23.9074C21.0389 23.8184 21.0894 23.6974 21.0897 23.5711C21.09 23.4449 21.0401 23.3237 20.951 23.2342C20.8619 23.1447 20.741 23.0942 20.6147 23.0939C20.4885 23.0936 20.3672 23.1435 20.2778 23.2326L18.5067 25.0037C18.4177 25.0928 18.3677 25.2136 18.3677 25.3395C18.3677 25.4655 18.4177 25.5862 18.5067 25.6754L20.2778 27.4496C20.3213 27.4963 20.3737 27.5338 20.432 27.5597C20.4903 27.5857 20.5533 27.5997 20.6171 27.6008C20.6809 27.6019 20.7443 27.5902 20.8034 27.5663C20.8626 27.5424 20.9164 27.5068 20.9615 27.4617C21.0066 27.4165 21.0422 27.3628 21.0661 27.3036C21.09 27.2444 21.1017 27.1811 21.1006 27.1172C21.0995 27.0534 21.0855 26.9905 21.0596 26.9322C21.0336 26.8739 20.9961 26.8214 20.9494 26.7779L20.3253 26.1633H27.7233C27.8493 26.1633 27.9702 26.1132 28.0593 26.0241C28.1485 25.935 28.1985 25.8141 28.1985 25.688C28.1985 25.562 28.1485 25.4411 28.0593 25.352C27.9702 25.2628 27.8493 25.2128 27.7233 25.2128Z" fill="#3D309E"/>
</svg>
