<svg width="24" height="24" viewBox="0 0 24 24" fill="none" xmlns="http://www.w3.org/2000/svg">
<path d="M21.7873 16.7029C21.7417 15.4045 21.3373 13.84 20.6485 12.2977C19.1346 8.90667 16.8734 6.84826 15.3897 7.51167L14.5273 7.89648V5.85074C14.5273 4.22567 11.727 3 8.01365 3C4.30028 3 1.5 4.22567 1.5 5.85074V9.51365C1.5 9.53302 1.50263 9.55167 1.50574 9.57033C1.50287 9.58898 1.5 9.60764 1.5 9.62701C1.5 9.66001 1.50311 9.69277 1.50526 9.7253C1.50263 9.74252 1.5 9.75998 1.5 9.77791V13.4408C1.5 13.4602 1.50263 13.4788 1.50574 13.4975C1.50287 13.5162 1.5 13.5348 1.5 13.5542C1.5 13.5956 1.50311 13.6365 1.5067 13.6771C1.50263 13.6984 1.5 13.7204 1.5 13.7429V17.4053C1.5 17.4247 1.50263 17.4433 1.50574 17.462C1.50287 17.4806 1.5 17.4993 1.5 17.5187C1.5 19.144 4.30028 20.3696 8.01365 20.3696C10.3672 20.3696 12.5129 19.8337 13.6467 18.9854C14.6586 20.2972 15.7472 21.0699 16.6587 21.0699C16.867 21.0699 17.0662 21.0297 17.2527 20.9463L20.7006 19.4068C21.4511 19.0729 21.8371 18.1123 21.7873 16.7029ZM8.01365 3.71771C11.4295 3.71771 13.8098 4.84198 13.8098 5.85098C13.8098 6.86021 11.4293 7.98472 8.01365 7.98472C4.59802 7.98472 2.21747 6.86021 2.21747 5.85098C2.21747 4.84198 4.59778 3.71771 8.01365 3.71771ZM2.21747 9.51389V7.19264C3.2786 8.10526 5.42335 8.70219 8.01365 8.70219C10.6042 8.70219 12.7489 8.10526 13.8098 7.19264V8.21694L11.9406 9.05112C11.2219 9.37255 10.8579 10.2567 10.8445 11.4678C9.97927 11.6565 9.01093 11.7608 8.01341 11.7608C4.59755 11.7608 2.21723 10.6365 2.21723 9.62749C2.21723 9.60811 2.2146 9.58946 2.21149 9.57081C2.2146 9.55191 2.21747 9.53326 2.21747 9.51389ZM2.21747 13.4413V10.9689C3.2786 11.8813 5.42335 12.4782 8.01365 12.4782C9.01332 12.4782 9.99314 12.3823 10.8761 12.2001C10.9574 13.0874 11.1954 14.1002 11.59 15.1699C10.53 15.5126 9.32996 15.6879 8.01365 15.6879C4.59778 15.6879 2.21747 14.5637 2.21747 13.5547C2.21747 13.5353 2.21484 13.5166 2.21173 13.498C2.2146 13.4793 2.21747 13.4607 2.21747 13.4413ZM8.01365 19.6529C4.59778 19.6529 2.21747 18.5284 2.21747 17.5194C2.21747 17.5 2.21484 17.4814 2.21173 17.4627C2.2146 17.4441 2.21747 17.4254 2.21747 17.406V14.8961C3.2786 15.8085 5.42335 16.4054 8.01365 16.4054C9.42275 16.4054 10.7113 16.2131 11.8535 15.8379C11.8987 15.9455 11.9456 16.0534 11.9939 16.1615C12.3677 16.9987 12.7879 17.7509 13.2299 18.4047C12.2407 19.1583 10.2038 19.6529 8.01365 19.6529ZM16.9605 20.2919C16.0388 20.7033 14.0418 18.988 12.6492 15.869C11.2566 12.7499 11.3126 10.1178 12.2328 9.70641L14.4615 8.71176C14.3381 9.12861 14.2829 9.63346 14.3034 10.2165C14.3491 11.5151 14.7535 13.0797 15.4423 14.6223C16.4991 16.9892 17.9192 18.7027 19.1858 19.2987L16.9605 20.2919ZM20.4084 18.7527C19.4874 19.1631 17.49 17.4488 16.0974 14.3298C15.4454 12.8695 15.063 11.3996 15.0204 10.1912C14.9824 9.10947 15.2237 8.37168 15.6824 8.16672C15.7731 8.1263 15.874 8.10645 15.984 8.10645C16.9911 8.10645 18.7383 9.77767 19.9939 12.5901C20.6459 14.0502 21.0283 15.5198 21.0708 16.7283C21.1084 17.81 20.8671 18.5478 20.4084 18.7527Z" fill="white"/>
</svg>
