<svg width="27" height="25" viewBox="0 0 27 25" fill="none" xmlns="http://www.w3.org/2000/svg">
<path d="M3.7876 18.9568C3.7876 20.555 5.08793 21.8557 6.6865 21.8557C8.28507 21.8557 9.58539 20.555 9.58539 18.9568C9.58539 17.3585 8.28507 16.0579 6.6865 16.0579C5.08793 16.0579 3.7876 17.3582 3.7876 18.9568ZM8.63254 18.9568C8.63254 20.0297 7.75941 20.9028 6.6865 20.9028C5.61358 20.9028 4.74045 20.0297 4.74045 18.9568C4.74045 17.8838 5.61358 17.0107 6.6865 17.0107C7.75941 17.0107 8.63254 17.8838 8.63254 18.9568Z" fill="#3D309E"/>
<path d="M26.6553 8.13248C26.459 7.95747 26.1583 7.9743 25.9826 8.17059L19.0627 15.9214L15.5003 12.359C15.3141 12.1729 15.0127 12.1729 14.8266 12.359C14.6405 12.5451 14.6405 12.8466 14.8266 13.0327L18.7457 16.9515C18.8353 17.041 18.9563 17.0909 19.0827 17.0909C19.0871 17.0909 19.0916 17.0909 19.096 17.0906C19.2269 17.0868 19.3508 17.0296 19.4381 16.9318L26.6938 8.80487C26.8688 8.6089 26.8516 8.30748 26.6553 8.13248Z" fill="#3D309E"/>
<path d="M19.247 18.281C18.9837 18.281 18.7706 18.4945 18.7706 18.7575V23.4985H1.90061V1.26529H18.7706V11.2471C18.7706 11.5101 18.9837 11.7235 19.247 11.7235C19.5103 11.7235 19.7234 11.5101 19.7234 11.2471V0.788866C19.7234 0.525878 19.5103 0.312439 19.247 0.312439H1.42418C1.16088 0.312439 0.947754 0.525878 0.947754 0.788866V23.975C0.947754 24.238 1.16088 24.4514 1.42418 24.4514H19.247C19.5103 24.4514 19.7234 24.238 19.7234 23.975V18.7575C19.7234 18.4945 19.5103 18.281 19.247 18.281Z" fill="#3D309E"/>
<path d="M13.6776 6.73405C13.9409 6.73405 14.154 6.5206 14.154 6.25762C14.154 5.99463 13.9409 5.78119 13.6776 5.78119H4.10582C3.84252 5.78119 3.62939 5.99463 3.62939 6.25762C3.62939 6.5206 3.84252 6.73405 4.10582 6.73405H13.6776Z" fill="#3D309E"/>
<path d="M14.2725 10.4959C14.2725 10.2329 14.0594 10.0195 13.7961 10.0195H4.22692C3.96361 10.0195 3.75049 10.2329 3.75049 10.4959C3.75049 10.7589 3.96361 10.9723 4.22692 10.9723H13.7961C14.0594 10.9723 14.2725 10.7589 14.2725 10.4959Z" fill="#3D309E"/>
</svg>
