<svg width="31" height="21" viewBox="0 0 31 21" fill="none" xmlns="http://www.w3.org/2000/svg">
<path d="M13.1855 8.92188C10.7493 8.92188 8.76758 10.9034 8.76758 13.339C8.76758 15.7745 10.7493 17.7561 13.1855 17.7561C15.6204 17.7561 17.6015 15.7745 17.6015 13.339C17.6012 10.9034 15.6204 8.92188 13.1855 8.92188ZM13.1855 16.7994C11.2768 16.7994 9.72418 15.2471 9.72418 13.339C9.72418 11.4311 11.2771 9.87851 13.1855 9.87851C15.093 9.87851 16.6449 11.4308 16.6449 13.339C16.6446 15.2471 15.093 16.7994 13.1855 16.7994Z" fill="#3D309E"/>
<path d="M3.89432 8.92188C3.62998 8.92188 3.41602 9.13584 3.41602 9.40019V17.2777C3.41602 17.5421 3.62998 17.7561 3.89432 17.7561C4.15866 17.7561 4.37262 17.5421 4.37262 17.2777V9.40019C4.37262 9.13616 4.15866 8.92188 3.89432 8.92188Z" fill="#3D309E"/>
<path d="M22.324 8.92188C22.0597 8.92188 21.8457 9.13584 21.8457 9.40019V17.2777C21.8457 17.5421 22.0597 17.7561 22.324 17.7561C22.5883 17.7561 22.8023 17.5421 22.8023 17.2777V9.40019C22.8023 9.13616 22.588 8.92188 22.324 8.92188Z" fill="#3D309E"/>
<path d="M30.1203 0.621094H6.89077C6.62643 0.621094 6.41246 0.835061 6.41246 1.09941V3.44252H4.28912C4.02478 3.44252 3.81082 3.65649 3.81082 3.92084V6.52671H1.46268C1.19834 6.52671 0.984375 6.74067 0.984375 7.00502V19.6766C0.984375 19.9409 1.19834 20.1549 1.46268 20.1549H24.6922C24.9566 20.1549 25.1705 19.9409 25.1705 19.6766V17.0707H27.5187C27.783 17.0707 27.997 16.8567 27.997 16.5924V14.248H30.1203C30.3846 14.248 30.5986 14.034 30.5986 13.7697V1.09909C30.5986 0.83538 30.3843 0.621094 30.1203 0.621094ZM24.2139 19.1986H1.94098V7.48366H24.2139V19.1986ZM25.1705 16.1144V7.00534C25.1705 6.74099 24.9566 6.52702 24.6922 6.52702H4.76743V4.39947H27.0404V16.1144H25.1705ZM29.642 13.2917H27.997V3.92084C27.997 3.65649 27.783 3.44252 27.5187 3.44252H7.36907V1.57773H29.642V13.2917Z" fill="#3D309E"/>
</svg>
