<svg width="19" height="20" viewBox="0 0 19 20" fill="none" xmlns="http://www.w3.org/2000/svg">
<path d="M9.75178 0.54677C9.69056 0.545096 9.43609 0.547248 9.4215 0.547727C4.40617 0.646976 0.350804 4.72434 0.288145 9.74853C0.260882 9.79899 0.244141 9.85591 0.244141 9.91737C0.244141 9.98099 0.262077 10.0396 0.291015 10.0912C0.410115 15.0657 4.44252 19.0852 9.42174 19.1835C9.4581 19.1847 9.49421 19.1882 9.5308 19.1882C9.54037 19.1882 9.54969 19.187 9.55926 19.187C9.57552 19.187 9.59155 19.1882 9.60781 19.1882C14.7482 19.1882 18.9301 15.0064 18.9301 9.86571C18.9303 4.77361 14.8259 0.624496 9.75178 0.54677ZM18.205 9.55864H14.7925C14.7312 6.05907 13.6311 3.10358 12.0053 1.60312C15.4925 2.61666 18.0715 5.78069 18.205 9.55864ZM9.24907 1.27883V9.55864H4.9866C5.06911 5.1333 6.92544 1.54883 9.24907 1.27883ZM9.24907 10.2759V18.4526C6.94361 18.1845 5.09709 14.6539 4.98803 10.2759H9.24907ZM9.96654 18.4304V10.2759H14.0736C13.9669 14.556 12.2 18.0269 9.96654 18.4304ZM9.96654 9.55864V1.30107C12.2177 1.70787 13.9942 5.23159 14.075 9.55864H9.96654ZM6.98164 1.672C5.39675 3.19327 4.3294 6.11264 4.26913 9.55864H1.0104C1.14097 5.86368 3.61074 2.75489 6.98164 1.672ZM1.01303 10.2759H4.27081C4.35021 13.6771 5.41278 16.5535 6.98188 18.0594C3.64183 16.9866 1.18522 13.9259 1.01303 10.2759ZM12.0053 18.1283C13.6151 16.6424 14.7104 13.7307 14.791 10.2759H18.2023C18.0263 14.0084 15.4609 17.1241 12.0053 18.1283Z" fill="white"/>
</svg>
