<svg width="24" height="24" viewBox="0 0 24 24" fill="none" xmlns="http://www.w3.org/2000/svg">
<path d="M20.8711 15.398L16.4716 8.42664L18.3291 5.52496C18.7419 4.88115 18.9062 4.1247 18.7694 3.50099C18.6747 3.07074 18.4492 2.73114 18.1165 2.51853L18.0137 2.45205C17.1635 1.9094 15.9258 2.37767 15.1943 3.51868L13.4484 6.24745L3.73798 5.34081C3.60381 5.32861 3.47467 5.39151 3.40244 5.50487L2.68306 6.62986C2.62375 6.72241 2.61036 6.83697 2.64623 6.94052C2.68211 7.04408 2.76366 7.12587 2.86745 7.16198L11.0437 10.0048L7.95788 14.8269L3.13674 15.2954C3.01095 15.3079 2.90093 15.3851 2.84712 15.4997L2.46591 16.3075C2.41808 16.4089 2.42047 16.5271 2.47213 16.6263C2.52402 16.7258 2.61945 16.7954 2.73018 16.8141L8.29055 17.7592L11.4778 22.4122C11.5412 22.5048 11.644 22.5624 11.7562 22.5677C11.7621 22.5679 11.7679 22.5682 11.7739 22.5682C11.8796 22.5682 11.9802 22.5215 12.0484 22.4402L12.6233 21.756C12.7046 21.6591 12.729 21.5266 12.6874 21.4071L11.0927 16.8327L14.0973 12.1371L19.6096 16.9834C19.688 17.0523 19.7923 17.0841 19.8963 17.069C19.9999 17.0544 20.0917 16.9954 20.1484 16.9076L20.8699 15.7833C20.9448 15.6661 20.9452 15.5159 20.8711 15.398ZM19.7695 16.1691L14.257 11.3226C14.1786 11.2535 14.075 11.2226 13.97 11.2367C13.8665 11.2513 13.7746 11.3106 13.718 11.3986L10.3942 16.5929C10.3349 16.6856 10.3215 16.8004 10.3576 16.9045L11.9427 21.4508L11.8028 21.6173L8.8155 17.256C8.78871 17.217 8.75451 17.1836 8.71481 17.1577L8.66363 17.1245C8.62274 17.0979 8.57682 17.08 8.52875 17.0719L3.31659 16.186L3.40914 15.9897L8.20111 15.5243C8.31064 15.5135 8.40941 15.4533 8.46872 15.3605L11.8932 10.0087C11.9523 9.9161 11.9659 9.80154 11.93 9.69775C11.8941 9.59396 11.8126 9.51241 11.7088 9.47629L3.53207 6.63345L3.88889 6.0755L13.5993 6.98214C13.7347 6.99505 13.8629 6.9312 13.9349 6.81832L15.7984 3.90564C16.2956 3.12982 17.1329 2.74023 17.6234 3.054L17.7305 3.12336C17.9434 3.2592 18.0318 3.48735 18.0684 3.65476C18.1655 4.09648 18.0371 4.65085 17.7248 5.13801L15.7443 8.23196C15.6695 8.34915 15.669 8.4991 15.7431 8.61677L20.1424 15.5882L19.7695 16.1691Z" fill="white"/>
</svg>
