<svg width="24" height="24" viewBox="0 0 24 24" fill="none" xmlns="http://www.w3.org/2000/svg">
<path d="M11.9534 4.07129C7.51582 4.07129 3.90576 7.68162 3.90576 12.119C3.90576 16.5563 7.51606 20.1666 11.9534 20.1666C16.3909 20.1666 20.0012 16.5563 20.0012 12.119C20.0012 7.68162 16.3909 4.07129 11.9534 4.07129ZM11.9534 19.304C7.9915 19.304 4.76816 16.0809 4.76816 12.119C4.76816 8.15707 7.9915 4.93369 11.9534 4.93369C15.9152 4.93369 19.1383 8.15707 19.1383 12.119C19.1383 16.0809 15.9152 19.304 11.9534 19.304Z" fill="white"/>
<path d="M13.9876 10.8107L12.2518 12.5465V6.37236C12.2518 6.13416 12.0586 5.94116 11.8204 5.94116C11.5822 5.94116 11.3892 6.13416 11.3892 6.37236V13.5875C11.3892 13.616 11.392 13.6444 11.3978 13.6724C11.4002 13.6846 11.4047 13.6959 11.4083 13.7078C11.4126 13.7229 11.4162 13.7382 11.4224 13.753C11.4284 13.7674 11.4365 13.7803 11.4439 13.7939C11.4499 13.8052 11.4549 13.8166 11.4621 13.8274C11.4937 13.8748 11.5346 13.9154 11.5819 13.9472C11.5908 13.9532 11.6003 13.957 11.6094 13.962C11.6247 13.9707 11.6396 13.9797 11.6561 13.9867C11.669 13.9919 11.6826 13.9951 11.6958 13.9991C11.7094 14.0032 11.7223 14.0084 11.7364 14.0111C11.7642 14.0166 11.7924 14.0197 11.8206 14.0197C11.8488 14.0197 11.877 14.0168 11.9048 14.0111C11.9189 14.0082 11.932 14.0032 11.9457 13.9989C11.9588 13.9948 11.9722 13.9919 11.9851 13.9867C12.0019 13.9797 12.0172 13.9704 12.0327 13.9616C12.0416 13.9565 12.0507 13.953 12.0593 13.9472C12.0834 13.9312 12.1059 13.913 12.126 13.8925L14.5977 11.4208C14.766 11.2524 14.766 10.9793 14.5977 10.8109C14.4291 10.6421 14.1562 10.6421 13.9876 10.8107Z" fill="white"/>
<path d="M11.9539 2.16406C6.46528 2.16406 2 6.62938 2 12.1183C2 17.6072 6.46528 22.0723 11.9539 22.0723C17.4425 22.0723 21.908 17.607 21.908 12.1183C21.908 6.62962 17.4425 2.16406 11.9539 2.16406ZM11.9539 21.2094C6.94096 21.2094 2.8624 17.1311 2.8624 12.1181C2.8624 7.10507 6.94072 3.02647 11.9539 3.02647C16.9671 3.02647 21.0452 7.10507 21.0452 12.1181C21.0452 17.1311 16.9668 21.2094 11.9539 21.2094Z" fill="white"/>
</svg>
