<svg viewBox="0 0 107 152" fill="none" xmlns="http://www.w3.org/2000/svg">
<g clip-path="url(#clip0)">
<path d="M99.5967 5.15625H19.8164C15.7261 5.15625 12.4102 8.47161 12.4102 12.5613V143.746C12.4102 147.836 15.7261 151.151 19.8164 151.151H99.5967C103.687 151.151 107.003 147.836 107.003 143.746V12.5613C107.003 8.47161 103.687 5.15625 99.5967 5.15625Z" fill="#F2F2F2"/>
<path d="M96.7681 9.05078H22.6402C18.8198 9.05078 15.7227 12.1474 15.7227 15.9672V139.123C15.7227 142.943 18.8198 146.039 22.6402 146.039H96.7681C100.589 146.039 103.686 142.943 103.686 139.123V15.9672C103.686 12.1474 100.589 9.05078 96.7681 9.05078Z" fill="white"/>
<path d="M36.7929 99.4417C38.6127 99.4417 40.3579 100.165 41.6447 101.451C42.9315 102.738 43.6544 104.483 43.6544 106.303C43.6544 108.123 42.9315 109.868 41.6447 111.155C40.3579 112.442 38.6127 113.165 36.7929 113.165C34.9731 113.165 33.2278 112.442 31.941 111.155C30.6543 109.868 29.9313 108.123 29.9313 106.303C29.9313 104.483 30.6543 102.738 31.941 101.451C33.2278 100.165 34.9731 99.4417 36.7929 99.4417ZM36.7929 116.595C44.3749 116.595 50.5159 119.666 50.5159 123.457V126.888H23.0698V123.457C23.0698 119.666 29.2109 116.595 36.7929 116.595Z" fill="#EEECFF"/>
<path d="M96.8621 99.4854H90.3409C89.1923 99.4854 88.2612 100.416 88.2612 101.565V108.264C88.2612 109.412 89.1923 110.343 90.3409 110.343H96.8621C98.0106 110.343 98.9417 109.412 98.9417 108.264V101.565C98.9417 100.416 98.0106 99.4854 96.8621 99.4854Z" fill="white"/>
<path d="M81.9391 103.816H57.2773V106.203H81.9391V103.816Z" fill="#E3E1FD"/>
<path d="M81.9386 109.386H57.2769V111.375H81.9386V109.386Z" fill="#E3E1FD"/>
<path d="M81.9391 114.559H57.2773V116.945H81.9391V114.559Z" fill="#E3E1FD"/>
<path d="M81.9386 120.125H57.2769V122.512H81.9386V120.125Z" fill="#E3E1FD"/>
<path d="M100.904 133H20V134.265H100.904V133Z" fill="#9595BF"/>
<path d="M96.8625 57.2109H90.3413C89.1928 57.2109 88.2617 58.1419 88.2617 59.2902V65.9895C88.2617 67.1379 89.1928 68.0688 90.3413 68.0688H96.8625C98.0111 68.0688 98.9422 67.1379 98.9422 65.9895V59.2902C98.9422 58.1419 98.0111 57.2109 96.8625 57.2109Z" fill="white"/>
<path d="M84.3257 63.6445H57.2773V66.0312H84.3257V63.6445Z" fill="#E3E1FD"/>
<path d="M84.3252 69.2112H57.2769V71.5978H84.3252V69.2112Z" fill="#E3E1FD"/>
<path d="M84.3257 74.7812H57.2773V76.7701H84.3257V74.7812Z" fill="#E3E1FD"/>
<path d="M84.3257 79.9531H57.2773V82.3397H84.3257V79.9531Z" fill="#E3E1FD"/>
<path d="M96.4429 60.2213C96.3149 60.1119 96.1468 60.0549 95.975 60.0627C95.8031 60.0706 95.6415 60.1426 95.5251 60.2632L92.8664 63.0474L91.7386 62.2118C91.6722 62.1609 91.5956 62.1234 91.5135 62.1018C91.4313 62.0801 91.3454 62.0748 91.261 62.086C91.1334 62.1005 91.0131 62.1508 90.9156 62.2306C90.8182 62.3104 90.7479 62.4161 90.7137 62.5342C90.6795 62.6522 90.6831 62.7773 90.7238 62.8934C90.7646 63.0095 90.8408 63.1114 90.9427 63.1861L92.4024 64.2669C92.5703 64.392 92.7817 64.4519 92.9941 64.4345C93.2065 64.4172 93.4041 64.3239 93.5471 64.1733L96.487 61.0956C96.5447 61.0356 96.5894 60.9653 96.6184 60.8888C96.6475 60.8122 96.6603 60.731 96.6562 60.6497C96.6521 60.5684 96.6312 60.4887 96.5946 60.4152C96.558 60.3417 96.5064 60.2758 96.4429 60.2213Z" fill="#493792"/>
<path d="M54.4563 95.9844H20.5742V97.0702H54.4563V95.9844Z" fill="#9595BF"/>
<path d="M100.661 94.7422H54.4531V95.9094H100.661V94.7422Z" fill="#9595BF"/>
<path d="M48.4111 1.98828H72.9152C73.9376 1.98828 74.9181 2.34139 75.641 2.96993C76.364 3.59846 76.7701 4.45094 76.7701 5.33982V10.7499C76.7701 11.38 76.4822 11.9844 75.9697 12.4299C75.4572 12.8755 74.7621 13.1258 74.0373 13.1258H47.2836C46.5588 13.1258 45.8637 12.8755 45.3512 12.4299C44.8387 11.9844 44.5508 11.38 44.5508 10.7499V5.33982C44.5508 4.89929 44.6507 4.46309 44.8447 4.05616C45.0388 3.64923 45.3232 3.27955 45.6818 2.96827C46.0403 2.65699 46.4659 2.41022 46.9342 2.24206C47.4025 2.07391 47.9044 1.98767 48.4111 1.98828Z" fill="#E3E1FD"/>
<path d="M50.8936 9.77084C52.1681 9.77084 53.2013 8.73783 53.2013 7.46355C53.2013 6.18926 52.1681 5.15625 50.8936 5.15625C49.6191 5.15625 48.5859 6.18926 48.5859 7.46355C48.5859 8.73783 49.6191 9.77084 50.8936 9.77084Z" fill="white"/>
<path d="M95.3313 22.0312H88.8101C87.6615 22.0312 86.7305 22.9622 86.7305 24.1105V30.8098C86.7305 31.9582 87.6615 32.8891 88.8101 32.8891H95.3313C96.4799 32.8891 97.4109 31.9582 97.4109 30.8098V24.1105C97.4109 22.9622 96.4799 22.0312 95.3313 22.0312Z" fill="white"/>
<path d="M81.9386 23.0696H57.2769V25.4562H81.9386V23.0696Z" fill="#E3E1FD"/>
<path d="M81.9391 28.6367H57.2773V31.0233H81.9391V28.6367Z" fill="#E3E1FD"/>
<path d="M81.9391 34.207H57.2773V36.1959H81.9391V34.207Z" fill="#E3E1FD"/>
<path d="M81.9386 39.3784H57.2769V41.765H81.9386V39.3784Z" fill="#E3E1FD"/>
<path d="M100.662 52.5742H19.7578V53.8392H100.662V52.5742Z" fill="#9595BF"/>
<path d="M93.0384 27.4437L94.1187 26.3656C94.2136 26.2702 94.2668 26.1416 94.2668 26.0076C94.2668 25.8737 94.2136 25.7451 94.1187 25.6496L94.0716 25.6057C94.0244 25.5586 93.9684 25.5212 93.9065 25.4957C93.8447 25.4702 93.7784 25.457 93.7115 25.457C93.6445 25.457 93.5782 25.4702 93.5164 25.4957C93.4546 25.5212 93.3985 25.5586 93.3514 25.6057L92.2821 26.6811L91.2102 25.6085C91.163 25.5614 91.1069 25.524 91.0451 25.4984C90.9833 25.4729 90.917 25.4598 90.8501 25.4598C90.7831 25.4598 90.7168 25.4729 90.655 25.4984C90.5932 25.524 90.5371 25.5614 90.49 25.6085L90.4429 25.6524C90.3473 25.7475 90.2936 25.8762 90.2936 26.0104C90.2936 26.1445 90.3473 26.2732 90.4429 26.3683L91.5204 27.4464L90.4429 28.5273C90.3953 28.574 90.3575 28.6295 90.3318 28.6907C90.306 28.7519 90.2927 28.8176 90.2927 28.8839C90.2927 28.9502 90.306 29.0159 90.3318 29.0771C90.3575 29.1383 90.3953 29.1939 90.4429 29.2405L90.49 29.2872C90.5855 29.3817 90.715 29.4347 90.8501 29.4347C90.9851 29.4347 91.1146 29.3817 91.2102 29.2872L92.2821 28.2091L93.3541 29.2817C93.4497 29.3762 93.5792 29.4292 93.7142 29.4292C93.8493 29.4292 93.9788 29.3762 94.0743 29.2817L94.1214 29.2351C94.2168 29.1404 94.2704 29.0122 94.2704 28.8784C94.2704 28.7447 94.2168 28.6164 94.1214 28.5218L93.0384 27.4437Z" fill="#493792"/>
<path d="M70.4405 9.77084C71.715 9.77084 72.7482 8.73783 72.7482 7.46355C72.7482 6.18926 71.715 5.15625 70.4405 5.15625C69.166 5.15625 68.1328 6.18926 68.1328 7.46355C68.1328 8.73783 69.166 9.77084 70.4405 9.77084Z" fill="white"/>
<path d="M94.5072 105.011L95.6959 103.716C95.8003 103.601 95.8589 103.447 95.8589 103.286C95.8589 103.125 95.8003 102.971 95.6959 102.856L95.6441 102.804C95.5922 102.747 95.5305 102.702 95.4625 102.671C95.3945 102.641 95.3216 102.625 95.2479 102.625C95.1742 102.625 95.1012 102.641 95.0332 102.671C94.9652 102.702 94.9035 102.747 94.8516 102.804L93.6721 104.092L92.4926 102.804C92.4407 102.747 92.379 102.702 92.311 102.671C92.243 102.641 92.17 102.625 92.0963 102.625C92.0227 102.625 91.9497 102.641 91.8817 102.671C91.8137 102.702 91.752 102.747 91.7001 102.804L91.6483 102.856C91.5439 102.971 91.4854 103.125 91.4854 103.286C91.4854 103.447 91.5439 103.601 91.6483 103.716L92.837 105.011L91.6483 106.309C91.5433 106.422 91.4844 106.576 91.4844 106.737C91.4844 106.897 91.5433 107.051 91.6483 107.165L91.7001 107.221C91.8053 107.334 91.9478 107.398 92.0963 107.398C92.2449 107.398 92.3874 107.334 92.4926 107.221L93.6721 105.933L94.8516 107.221C94.9568 107.334 95.0993 107.398 95.2479 107.398C95.3964 107.398 95.5389 107.334 95.6441 107.221L95.6959 107.165C95.8009 107.051 95.8598 106.897 95.8598 106.737C95.8598 106.576 95.8009 106.422 95.6959 106.309L94.5072 105.011Z" fill="#505C93"/>
<path d="M19.5274 94.6992L1.77734 122.501L5.03523 125.139L24.0287 97.506L19.5274 94.6992Z" fill="#9595BF"/>
<path d="M35.4442 101.078C20.0398 101.078 7.50781 89.1072 7.50781 74.3894C7.50781 59.6715 20.0127 47.6953 35.4442 47.6953C50.8758 47.6953 63.3752 59.6715 63.3752 74.3894C63.3752 89.1072 50.8215 101.078 35.4442 101.078ZM35.4442 50.4098C21.5385 50.4098 10.2227 61.1645 10.2227 74.3894C10.2227 87.6143 21.5113 98.3636 35.4442 98.3636C49.3771 98.3636 60.6603 87.6089 60.6603 74.3894C60.6603 61.1699 49.3228 50.4098 35.4442 50.4098Z" fill="#9595BF"/>
</g>
<path d="M36.7934 17.1055C38.6132 17.1055 40.3584 17.8284 41.6452 19.1152C42.932 20.4019 43.6549 22.1472 43.6549 23.967C43.6549 25.7868 42.932 27.532 41.6452 28.8188C40.3584 30.1056 38.6132 30.8285 36.7934 30.8285C34.9736 30.8285 33.2283 30.1056 31.9415 28.8188C30.6547 27.532 29.9318 25.7868 29.9318 23.967C29.9318 22.1472 30.6547 20.4019 31.9415 19.1152C33.2283 17.8284 34.9736 17.1055 36.7934 17.1055ZM36.7934 34.2593C44.3753 34.2593 50.5164 37.3298 50.5164 41.1208V44.5516H23.0703V41.1208C23.0703 37.3298 29.2114 34.2593 36.7934 34.2593Z" fill="#EEECFF"/>
<path d="M36.7936 62.8469C38.6134 62.8469 40.3587 63.5698 41.6454 64.8566C42.9322 66.1434 43.6551 67.8887 43.6551 69.7084C43.6551 71.5282 42.9322 73.2735 41.6454 74.5603C40.3587 75.8471 38.6134 76.57 36.7936 76.57C34.9738 76.57 33.2286 75.8471 31.9418 74.5603C30.655 73.2735 29.9321 71.5282 29.9321 69.7084C29.9321 67.8887 30.655 66.1434 31.9418 64.8566C33.2286 63.5698 34.9738 62.8469 36.7936 62.8469ZM36.7936 80.0007C44.3756 80.0007 50.5167 83.0713 50.5167 86.8623V90.293H23.0706V86.8623C23.0706 83.0713 29.2116 80.0007 36.7936 80.0007Z" fill="#D3D0FD"/>
<defs>
<clipPath id="clip0">
<rect width="107" height="151.152" fill="white"/>
</clipPath>
</defs>
</svg>